<?xml version="1.0" encoding="utf-8" standalone="no"?>
<!DOCTYPE svg PUBLIC "-//W3C//DTD SVG 1.1//EN"
  "http://www.w3.org/Graphics/SVG/1.1/DTD/svg11.dtd">
<svg xmlns:xlink="http://www.w3.org/1999/xlink" width="504pt" height="360pt" viewBox="0 0 504 360" xmlns="http://www.w3.org/2000/svg" version="1.1">
 <metadata>
  <rdf:RDF xmlns:dc="http://purl.org/dc/elements/1.1/" xmlns:cc="http://creativecommons.org/ns#" xmlns:rdf="http://www.w3.org/1999/02/22-rdf-syntax-ns#">
   <cc:Work>
    <dc:type rdf:resource="http://purl.org/dc/dcmitype/StillImage"/>
    <dc:date>2025-05-14T19:01:47.924128</dc:date>
    <dc:format>image/svg+xml</dc:format>
    <dc:creator>
     <cc:Agent>
      <dc:title>Matplotlib v3.10.3, https://matplotlib.org/</dc:title>
     </cc:Agent>
    </dc:creator>
   </cc:Work>
  </rdf:RDF>
 </metadata>
 <defs>
  <style type="text/css">*{stroke-linejoin: round; stroke-linecap: butt}</style>
 </defs>
 <g id="figure_1">
  <g id="patch_1">
   <path d="M 0 360 
L 504 360 
L 504 0 
L 0 0 
z
" style="fill: #ffffff"/>
  </g>
  <g id="axes_1">
   <g id="patch_2">
    <path d="M 63 320.4 
L 453.6 320.4 
L 453.6 43.2 
L 63 43.2 
z
" style="fill: #ffffff"/>
   </g>
   <g id="FillBetweenPolyCollection_1">
    <defs>
     <path id="m7dd17a3b8e" d="M 106.378644 -195.553029 
L 105.85772 -195.553029 
L 105.8459 -196.249376 
L 105.834743 -196.945723 
L 105.822343 -197.64207 
L 105.806536 -198.338417 
L 105.785224 -199.034764 
L 105.75672 -199.731111 
L 105.720061 -200.427458 
L 105.675222 -201.123805 
L 105.623177 -201.820152 
L 105.56578 -202.516498 
L 105.505466 -203.212845 
L 105.444808 -203.909192 
L 105.385996 -204.605539 
L 105.330334 -205.301886 
L 105.277852 -205.998233 
L 105.227118 -206.69458 
L 105.175296 -207.390927 
L 105.11847 -208.087274 
L 105.052192 -208.783621 
L 104.972163 -209.479968 
L 104.874936 -210.176315 
L 104.758507 -210.872662 
L 104.622693 -211.569009 
L 104.469187 -212.265356 
L 104.301285 -212.961703 
L 104.123286 -213.65805 
L 103.93967 -214.354397 
L 103.754177 -215.050744 
L 103.568958 -215.747091 
L 103.383973 -216.443438 
L 103.196779 -217.139785 
L 103.00279 -217.836132 
L 102.796007 -218.532479 
L 102.570128 -219.228826 
L 102.319866 -219.925172 
L 102.042216 -220.621519 
L 101.737451 -221.317866 
L 101.409623 -222.014213 
L 101.066434 -222.71056 
L 100.718497 -223.406907 
L 100.378052 -224.103254 
L 100.057388 -224.799601 
L 99.767203 -225.495948 
L 99.5152 -226.192295 
L 99.305125 -226.888642 
L 99.136392 -227.584989 
L 99.004314 -228.281336 
L 98.900854 -228.977683 
L 98.815726 -229.67403 
L 98.737623 -230.370377 
L 98.65536 -231.066724 
L 98.558749 -231.763071 
L 98.439091 -232.459418 
L 98.289288 -233.155765 
L 98.103601 -233.852112 
L 97.877216 -234.548459 
L 97.605749 -235.244806 
L 97.284872 -235.941153 
L 96.910157 -236.6375 
L 96.477222 -237.333846 
L 95.982136 -238.030193 
L 95.422012 -238.72654 
L 94.795634 -239.422887 
L 94.103965 -240.119234 
L 93.350412 -240.815581 
L 92.540771 -241.511928 
L 91.682868 -242.208275 
L 90.786008 -242.904622 
L 89.860364 -243.600969 
L 88.916486 -244.297316 
L 87.965059 -244.993663 
L 87.016951 -245.69001 
L 86.083529 -246.386357 
L 85.177096 -247.082704 
L 84.311296 -247.779051 
L 83.501299 -248.475398 
L 82.763656 -249.171745 
L 82.1158 -249.868092 
L 81.575249 -250.564439 
L 81.158668 -251.260786 
L 80.880958 -251.957133 
L 80.754545 -252.65348 
L 80.788955 -253.349827 
L 80.990686 -254.046174 
L 81.363303 -254.74252 
L 81.907607 -255.438867 
L 82.621726 -256.135214 
L 83.501015 -256.831561 
L 84.537718 -257.527908 
L 85.720443 -258.224255 
L 87.033614 -258.920602 
L 88.457064 -259.616949 
L 89.965993 -260.313296 
L 91.53144 -261.009643 
L 93.121314 -261.70599 
L 94.701944 -262.402337 
L 96.239986 -263.098684 
L 97.704457 -263.795031 
L 99.068624 -264.491378 
L 113.167739 -264.491378 
L 113.167739 -264.491378 
L 114.531906 -263.795031 
L 115.996377 -263.098684 
L 117.53442 -262.402337 
L 119.11505 -261.70599 
L 120.704924 -261.009643 
L 122.270371 -260.313296 
L 123.7793 -259.616949 
L 125.202749 -258.920602 
L 126.51592 -258.224255 
L 127.698646 -257.527908 
L 128.735348 -256.831561 
L 129.614638 -256.135214 
L 130.328757 -255.438867 
L 130.87306 -254.74252 
L 131.245677 -254.046174 
L 131.447408 -253.349827 
L 131.481818 -252.65348 
L 131.355406 -251.957133 
L 131.077696 -251.260786 
L 130.661114 -250.564439 
L 130.120564 -249.868092 
L 129.472708 -249.171745 
L 128.735065 -248.475398 
L 127.925068 -247.779051 
L 127.059268 -247.082704 
L 126.152835 -246.386357 
L 125.219412 -245.69001 
L 124.271304 -244.993663 
L 123.319877 -244.297316 
L 122.376 -243.600969 
L 121.450356 -242.904622 
L 120.553496 -242.208275 
L 119.695593 -241.511928 
L 118.885951 -240.815581 
L 118.132399 -240.119234 
L 117.44073 -239.422887 
L 116.814351 -238.72654 
L 116.254227 -238.030193 
L 115.759141 -237.333846 
L 115.326206 -236.6375 
L 114.951492 -235.941153 
L 114.630614 -235.244806 
L 114.359148 -234.548459 
L 114.132762 -233.852112 
L 113.947076 -233.155765 
L 113.797272 -232.459418 
L 113.677615 -231.763071 
L 113.581003 -231.066724 
L 113.498741 -230.370377 
L 113.420638 -229.67403 
L 113.335509 -228.977683 
L 113.232049 -228.281336 
L 113.099971 -227.584989 
L 112.931238 -226.888642 
L 112.721163 -226.192295 
L 112.469161 -225.495948 
L 112.178976 -224.799601 
L 111.858312 -224.103254 
L 111.517867 -223.406907 
L 111.169929 -222.71056 
L 110.826741 -222.014213 
L 110.498912 -221.317866 
L 110.194148 -220.621519 
L 109.916498 -219.925172 
L 109.666235 -219.228826 
L 109.440357 -218.532479 
L 109.233573 -217.836132 
L 109.039584 -217.139785 
L 108.852391 -216.443438 
L 108.667406 -215.747091 
L 108.482187 -215.050744 
L 108.296693 -214.354397 
L 108.113078 -213.65805 
L 107.935079 -212.961703 
L 107.767176 -212.265356 
L 107.61367 -211.569009 
L 107.477856 -210.872662 
L 107.361428 -210.176315 
L 107.2642 -209.479968 
L 107.184171 -208.783621 
L 107.117894 -208.087274 
L 107.061068 -207.390927 
L 107.009245 -206.69458 
L 106.958511 -205.998233 
L 106.90603 -205.301886 
L 106.850368 -204.605539 
L 106.791555 -203.909192 
L 106.730897 -203.212845 
L 106.670584 -202.516498 
L 106.613187 -201.820152 
L 106.561141 -201.123805 
L 106.516302 -200.427458 
L 106.479643 -199.731111 
L 106.45114 -199.034764 
L 106.429828 -198.338417 
L 106.414021 -197.64207 
L 106.40162 -196.945723 
L 106.390464 -196.249376 
L 106.378644 -195.553029 
z
" style="stroke: #808080; stroke-opacity: 0.7"/>
    </defs>
    <g clip-path="url(#pb97c20ca0f)">
     <use xlink:href="#m7dd17a3b8e" x="0" y="360" style="fill: #f08080; fill-opacity: 0.7; stroke: #808080; stroke-opacity: 0.7"/>
    </g>
   </g>
   <g id="FillBetweenPolyCollection_2">
    <defs>
     <path id="mf4480cc3ea" d="M 208.445244 -238.366941 
L 206.700211 -238.366941 
L 206.563974 -238.822599 
L 206.435763 -239.278256 
L 206.314343 -239.733913 
L 206.195882 -240.189571 
L 206.075933 -240.645228 
L 205.951424 -241.100886 
L 205.821638 -241.556543 
L 205.687658 -242.012201 
L 205.55048 -242.467858 
L 205.408695 -242.923516 
L 205.256931 -243.379173 
L 205.085917 -243.83483 
L 204.884283 -244.290488 
L 204.641368 -244.746145 
L 204.349773 -245.201803 
L 204.00655 -245.65746 
L 203.612607 -246.113118 
L 203.17079 -246.568775 
L 202.683719 -247.024432 
L 202.152371 -247.48009 
L 201.575827 -247.935747 
L 200.951977 -248.391405 
L 200.278618 -248.847062 
L 199.554648 -249.30272 
L 198.781358 -249.758377 
L 197.96394 -250.214035 
L 197.112871 -250.669692 
L 196.244199 -251.125349 
L 195.377537 -251.581007 
L 194.531229 -252.036664 
L 193.715687 -252.492322 
L 192.927515 -252.947979 
L 192.147681 -253.403637 
L 191.345969 -253.859294 
L 190.491384 -254.314952 
L 189.56513 -254.770609 
L 188.570935 -255.226266 
L 187.537992 -255.681924 
L 186.514694 -256.137581 
L 185.555432 -256.593239 
L 184.705838 -257.048896 
L 183.992464 -257.504554 
L 183.420499 -257.960211 
L 182.979198 -258.415868 
L 182.651171 -258.871526 
L 182.420484 -259.327183 
L 182.275944 -259.782841 
L 182.209091 -260.238498 
L 182.209374 -260.694156 
L 182.260336 -261.149813 
L 182.339783 -261.605471 
L 182.424575 -262.061128 
L 182.498144 -262.516785 
L 182.5574 -262.972443 
L 182.615903 -263.4281 
L 182.701827 -263.883758 
L 182.851391 -264.339415 
L 183.100113 -264.795073 
L 183.474806 -265.25073 
L 183.988618 -265.706388 
L 184.640084 -266.162045 
L 185.415803 -266.617702 
L 186.295388 -267.07336 
L 187.257 -267.529017 
L 188.281959 -267.984675 
L 189.357388 -268.440332 
L 190.47645 -268.89599 
L 191.636354 -269.351647 
L 192.834909 -269.807304 
L 194.066757 -270.262962 
L 195.320532 -270.718619 
L 196.57787 -271.174277 
L 197.814617 -271.629934 
L 199.003847 -272.085592 
L 200.119747 -272.541249 
L 201.141154 -272.996907 
L 202.053763 -273.452564 
L 202.850617 -273.908221 
L 203.531183 -274.363879 
L 204.099862 -274.819536 
L 204.564785 -275.275194 
L 204.937337 -275.730851 
L 205.232104 -276.186509 
L 205.466514 -276.642166 
L 205.659435 -277.097824 
L 205.828605 -277.553481 
L 205.987589 -278.009138 
L 206.143449 -278.464796 
L 206.296243 -278.920453 
L 206.440727 -279.376111 
L 206.569693 -279.831768 
L 206.677643 -280.287426 
L 206.763399 -280.743083 
L 206.830764 -281.19874 
L 206.887181 -281.654398 
L 206.94115 -282.110055 
L 206.999529 -282.565713 
L 207.065713 -283.02137 
L 207.139191 -283.477028 
L 208.006263 -283.477028 
L 208.006263 -283.477028 
L 208.079742 -283.02137 
L 208.145925 -282.565713 
L 208.204304 -282.110055 
L 208.258273 -281.654398 
L 208.31469 -281.19874 
L 208.382056 -280.743083 
L 208.467812 -280.287426 
L 208.575761 -279.831768 
L 208.704727 -279.376111 
L 208.849212 -278.920453 
L 209.002005 -278.464796 
L 209.157866 -278.009138 
L 209.31685 -277.553481 
L 209.48602 -277.097824 
L 209.67894 -276.642166 
L 209.913351 -276.186509 
L 210.208118 -275.730851 
L 210.58067 -275.275194 
L 211.045593 -274.819536 
L 211.614271 -274.363879 
L 212.294838 -273.908221 
L 213.091692 -273.452564 
L 214.004301 -272.996907 
L 215.025707 -272.541249 
L 216.141607 -272.085592 
L 217.330837 -271.629934 
L 218.567584 -271.174277 
L 219.824923 -270.718619 
L 221.078698 -270.262962 
L 222.310545 -269.807304 
L 223.5091 -269.351647 
L 224.669005 -268.89599 
L 225.788067 -268.440332 
L 226.863496 -267.984675 
L 227.888454 -267.529017 
L 228.850066 -267.07336 
L 229.729652 -266.617702 
L 230.505371 -266.162045 
L 231.156836 -265.706388 
L 231.670648 -265.25073 
L 232.045342 -264.795073 
L 232.294064 -264.339415 
L 232.443627 -263.883758 
L 232.529551 -263.4281 
L 232.588054 -262.972443 
L 232.64731 -262.516785 
L 232.720879 -262.061128 
L 232.805671 -261.605471 
L 232.885118 -261.149813 
L 232.93608 -260.694156 
L 232.936364 -260.238498 
L 232.869511 -259.782841 
L 232.72497 -259.327183 
L 232.494283 -258.871526 
L 232.166257 -258.415868 
L 231.724956 -257.960211 
L 231.152991 -257.504554 
L 230.439616 -257.048896 
L 229.590022 -256.593239 
L 228.63076 -256.137581 
L 227.607463 -255.681924 
L 226.57452 -255.226266 
L 225.580325 -254.770609 
L 224.65407 -254.314952 
L 223.799486 -253.859294 
L 222.997774 -253.403637 
L 222.217939 -252.947979 
L 221.429768 -252.492322 
L 220.614226 -252.036664 
L 219.767917 -251.581007 
L 218.901256 -251.125349 
L 218.032584 -250.669692 
L 217.181514 -250.214035 
L 216.364096 -249.758377 
L 215.590806 -249.30272 
L 214.866836 -248.847062 
L 214.193477 -248.391405 
L 213.569627 -247.935747 
L 212.993084 -247.48009 
L 212.461735 -247.024432 
L 211.974665 -246.568775 
L 211.532847 -246.113118 
L 211.138904 -245.65746 
L 210.795682 -245.201803 
L 210.504086 -244.746145 
L 210.261171 -244.290488 
L 210.059538 -243.83483 
L 209.888524 -243.379173 
L 209.73676 -242.923516 
L 209.594975 -242.467858 
L 209.457796 -242.012201 
L 209.323817 -241.556543 
L 209.19403 -241.100886 
L 209.069521 -240.645228 
L 208.949573 -240.189571 
L 208.831111 -239.733913 
L 208.709692 -239.278256 
L 208.581481 -238.822599 
L 208.445244 -238.366941 
z
" style="stroke: #808080; stroke-opacity: 0.7"/>
    </defs>
    <g clip-path="url(#pb97c20ca0f)">
     <use xlink:href="#mf4480cc3ea" x="0" y="360" style="fill: #f08080; fill-opacity: 0.7; stroke: #808080; stroke-opacity: 0.7"/>
    </g>
   </g>
   <g id="FillBetweenPolyCollection_3">
    <defs>
     <path id="md0a81f20bf" d="M 309.526382 -155.448477 
L 308.528163 -155.448477 
L 308.461496 -155.7165 
L 308.402346 -155.984522 
L 308.352554 -156.252545 
L 308.312826 -156.520567 
L 308.282752 -156.78859 
L 308.260934 -157.056612 
L 308.245184 -157.324635 
L 308.232799 -157.592657 
L 308.220931 -157.86068 
L 308.207071 -158.128702 
L 308.189563 -158.396725 
L 308.168033 -158.664747 
L 308.143532 -158.93277 
L 308.118271 -159.200792 
L 308.094945 -159.468815 
L 308.075796 -159.736837 
L 308.061719 -160.00486 
L 308.051712 -160.272882 
L 308.042909 -160.540904 
L 308.031222 -160.808927 
L 308.012436 -161.076949 
L 307.983383 -161.344972 
L 307.942837 -161.612994 
L 307.891799 -161.881017 
L 307.833084 -162.149039 
L 307.770325 -162.417062 
L 307.706739 -162.685084 
L 307.644047 -162.953107 
L 307.581901 -163.221129 
L 307.517968 -163.489152 
L 307.448612 -163.757174 
L 307.369929 -164.025197 
L 307.278801 -164.293219 
L 307.173665 -164.561242 
L 307.054837 -164.829264 
L 306.924352 -165.097287 
L 306.785409 -165.365309 
L 306.641555 -165.633332 
L 306.495776 -165.901354 
L 306.349623 -166.169377 
L 306.20249 -166.437399 
L 306.051172 -166.705422 
L 305.889789 -166.973444 
L 305.710117 -167.241466 
L 305.502311 -167.509489 
L 305.255911 -167.777511 
L 304.961012 -168.045534 
L 304.609452 -168.313556 
L 304.19594 -168.581579 
L 303.719022 -168.849601 
L 303.181744 -169.117624 
L 302.591797 -169.385646 
L 301.960882 -169.653669 
L 301.303169 -169.921691 
L 300.632954 -170.189714 
L 299.961979 -170.457736 
L 299.297125 -170.725759 
L 298.639198 -170.993781 
L 297.983247 -171.261804 
L 297.320375 -171.529826 
L 296.640529 -171.797849 
L 295.935486 -172.065871 
L 295.201331 -172.333894 
L 294.439975 -172.601916 
L 293.659667 -172.869939 
L 292.874674 -173.137961 
L 292.104361 -173.405984 
L 291.371818 -173.674006 
L 290.702086 -173.942028 
L 290.120001 -174.210051 
L 289.647841 -174.478073 
L 289.303037 -174.746096 
L 289.096263 -175.014118 
L 289.030095 -175.282141 
L 289.098155 -175.550163 
L 289.28451 -175.818186 
L 289.563049 -176.086208 
L 289.896874 -176.354231 
L 290.238101 -176.622253 
L 290.528903 -176.890276 
L 290.704756 -177.158298 
L 290.700596 -177.426321 
L 290.460035 -177.694343 
L 289.946853 -177.962366 
L 289.157034 -178.230388 
L 288.128806 -178.498411 
L 286.947707 -178.766433 
L 285.743985 -179.034456 
L 284.680796 -179.302478 
L 283.933603 -179.570501 
L 283.663636 -179.838523 
L 283.990418 -180.106546 
L 284.969434 -180.374568 
L 286.580413 -180.64259 
L 288.729366 -180.910613 
L 291.264087 -181.178635 
L 293.999458 -181.446658 
L 296.746569 -181.71468 
L 299.339236 -181.982703 
L 318.715309 -181.982703 
L 318.715309 -181.982703 
L 321.307977 -181.71468 
L 324.055087 -181.446658 
L 326.790458 -181.178635 
L 329.32518 -180.910613 
L 331.474132 -180.64259 
L 333.085112 -180.374568 
L 334.064127 -180.106546 
L 334.390909 -179.838523 
L 334.120942 -179.570501 
L 333.373749 -179.302478 
L 332.31056 -179.034456 
L 331.106839 -178.766433 
L 329.925739 -178.498411 
L 328.897511 -178.230388 
L 328.107693 -177.962366 
L 327.59451 -177.694343 
L 327.35395 -177.426321 
L 327.34979 -177.158298 
L 327.525642 -176.890276 
L 327.816445 -176.622253 
L 328.157671 -176.354231 
L 328.491496 -176.086208 
L 328.770036 -175.818186 
L 328.95639 -175.550163 
L 329.02445 -175.282141 
L 328.958282 -175.014118 
L 328.751508 -174.746096 
L 328.406704 -174.478073 
L 327.934545 -174.210051 
L 327.35246 -173.942028 
L 326.682727 -173.674006 
L 325.950185 -173.405984 
L 325.179871 -173.137961 
L 324.394878 -172.869939 
L 323.614571 -172.601916 
L 322.853215 -172.333894 
L 322.11906 -172.065871 
L 321.414017 -171.797849 
L 320.73417 -171.529826 
L 320.071298 -171.261804 
L 319.415347 -170.993781 
L 318.75742 -170.725759 
L 318.092567 -170.457736 
L 317.421592 -170.189714 
L 316.751376 -169.921691 
L 316.093663 -169.653669 
L 315.462748 -169.385646 
L 314.872801 -169.117624 
L 314.335524 -168.849601 
L 313.858606 -168.581579 
L 313.445093 -168.313556 
L 313.093533 -168.045534 
L 312.798634 -167.777511 
L 312.552235 -167.509489 
L 312.344428 -167.241466 
L 312.164756 -166.973444 
L 312.003373 -166.705422 
L 311.852056 -166.437399 
L 311.704922 -166.169377 
L 311.558769 -165.901354 
L 311.412991 -165.633332 
L 311.269137 -165.365309 
L 311.130193 -165.097287 
L 310.999709 -164.829264 
L 310.88088 -164.561242 
L 310.775744 -164.293219 
L 310.684616 -164.025197 
L 310.605934 -163.757174 
L 310.536578 -163.489152 
L 310.472644 -163.221129 
L 310.410498 -162.953107 
L 310.347807 -162.685084 
L 310.284221 -162.417062 
L 310.221462 -162.149039 
L 310.162746 -161.881017 
L 310.111709 -161.612994 
L 310.071163 -161.344972 
L 310.04211 -161.076949 
L 310.023323 -160.808927 
L 310.011637 -160.540904 
L 310.002833 -160.272882 
L 309.992826 -160.00486 
L 309.978749 -159.736837 
L 309.959601 -159.468815 
L 309.936274 -159.200792 
L 309.911014 -158.93277 
L 309.886513 -158.664747 
L 309.864983 -158.396725 
L 309.847475 -158.128702 
L 309.833614 -157.86068 
L 309.821747 -157.592657 
L 309.809361 -157.324635 
L 309.793611 -157.056612 
L 309.771793 -156.78859 
L 309.74172 -156.520567 
L 309.701992 -156.252545 
L 309.652199 -155.984522 
L 309.593049 -155.7165 
L 309.526382 -155.448477 
z
" style="stroke: #808080; stroke-opacity: 0.7"/>
    </defs>
    <g clip-path="url(#pb97c20ca0f)">
     <use xlink:href="#md0a81f20bf" x="0" y="360" style="fill: #87cefa; fill-opacity: 0.7; stroke: #808080; stroke-opacity: 0.7"/>
    </g>
   </g>
   <g id="FillBetweenPolyCollection_4">
    <defs>
     <path id="mb553285a54" d="M 410.857566 -247.542229 
L 410.10607 -247.542229 
L 410.011592 -248.077878 
L 409.903948 -248.613528 
L 409.782892 -249.149177 
L 409.648772 -249.684826 
L 409.503056 -250.220475 
L 409.34883 -250.756124 
L 409.191007 -251.291773 
L 409.036017 -251.827422 
L 408.890879 -252.363071 
L 408.761778 -252.89872 
L 408.652489 -253.434369 
L 408.563145 -253.970018 
L 408.489777 -254.505667 
L 408.424876 -255.041316 
L 408.358869 -255.576965 
L 408.282157 -256.112614 
L 408.187169 -256.648263 
L 408.069935 -257.183912 
L 407.930817 -257.719561 
L 407.774306 -258.25521 
L 407.607968 -258.790859 
L 407.440757 -259.326508 
L 407.281027 -259.862157 
L 407.134585 -260.397806 
L 407.00322 -260.933455 
L 406.884075 -261.469104 
L 406.770093 -262.004754 
L 406.651481 -262.540403 
L 406.51777 -263.076052 
L 406.359833 -263.611701 
L 406.17122 -264.14735 
L 405.948452 -264.682999 
L 405.690322 -265.218648 
L 405.396602 -265.754297 
L 405.066694 -266.289946 
L 404.698667 -266.825595 
L 404.288919 -267.361244 
L 403.832493 -267.896893 
L 403.323953 -268.432542 
L 402.758617 -268.968191 
L 402.133804 -269.50384 
L 401.449702 -270.039489 
L 400.709483 -270.575138 
L 399.918547 -271.110787 
L 399.083189 -271.646436 
L 398.209268 -272.182085 
L 397.301525 -272.717734 
L 396.363854 -273.253383 
L 395.400329 -273.789032 
L 394.416413 -274.324681 
L 393.419733 -274.86033 
L 392.420151 -275.39598 
L 391.429269 -275.931629 
L 390.459787 -276.467278 
L 389.525087 -277.002927 
L 388.639115 -277.538576 
L 387.816437 -278.074225 
L 387.072272 -278.609874 
L 386.422498 -279.145523 
L 385.883778 -279.681172 
L 385.473877 -280.216821 
L 385.211947 -280.75247 
L 385.118182 -281.288119 
L 385.212131 -281.823768 
L 385.509377 -282.359417 
L 386.017069 -282.895066 
L 386.729625 -283.430715 
L 387.626314 -283.966364 
L 388.672011 -284.502013 
L 389.821401 -285.037662 
L 391.025611 -285.573311 
L 392.239403 -286.10896 
L 393.426954 -286.644609 
L 394.564923 -287.180258 
L 395.642533 -287.715907 
L 396.659302 -288.251556 
L 397.621532 -288.787206 
L 398.538601 -289.322855 
L 399.419792 -289.858504 
L 400.272048 -290.394153 
L 401.098787 -290.929802 
L 401.899759 -291.465451 
L 402.671806 -292.0011 
L 403.410231 -292.536749 
L 404.110358 -293.072398 
L 404.768829 -293.608047 
L 405.384313 -294.143696 
L 405.957492 -294.679345 
L 406.490445 -295.214994 
L 406.985701 -295.750643 
L 407.445295 -296.286292 
L 407.870165 -296.821941 
L 408.260048 -297.35759 
L 408.613899 -297.893239 
L 408.93064 -298.428888 
L 409.209918 -298.964537 
L 409.452569 -299.500186 
L 409.660641 -300.035835 
L 409.837013 -300.571484 
L 411.126624 -300.571484 
L 411.126624 -300.571484 
L 411.302996 -300.035835 
L 411.511067 -299.500186 
L 411.753719 -298.964537 
L 412.032996 -298.428888 
L 412.349738 -297.893239 
L 412.703589 -297.35759 
L 413.093471 -296.821941 
L 413.518341 -296.286292 
L 413.977936 -295.750643 
L 414.473191 -295.214994 
L 415.006145 -294.679345 
L 415.579323 -294.143696 
L 416.194807 -293.608047 
L 416.853278 -293.072398 
L 417.553406 -292.536749 
L 418.291831 -292.0011 
L 419.063877 -291.465451 
L 419.864849 -290.929802 
L 420.691588 -290.394153 
L 421.543844 -289.858504 
L 422.425035 -289.322855 
L 423.342104 -288.787206 
L 424.304335 -288.251556 
L 425.321103 -287.715907 
L 426.398713 -287.180258 
L 427.536683 -286.644609 
L 428.724233 -286.10896 
L 429.938025 -285.573311 
L 431.142236 -285.037662 
L 432.291626 -284.502013 
L 433.337323 -283.966364 
L 434.234011 -283.430715 
L 434.946568 -282.895066 
L 435.45426 -282.359417 
L 435.751506 -281.823768 
L 435.845455 -281.288119 
L 435.751689 -280.75247 
L 435.48976 -280.216821 
L 435.079858 -279.681172 
L 434.541138 -279.145523 
L 433.891365 -278.609874 
L 433.147199 -278.074225 
L 432.324521 -277.538576 
L 431.438549 -277.002927 
L 430.503849 -276.467278 
L 429.534367 -275.931629 
L 428.543485 -275.39598 
L 427.543903 -274.86033 
L 426.547224 -274.324681 
L 425.563307 -273.789032 
L 424.599782 -273.253383 
L 423.662111 -272.717734 
L 422.754368 -272.182085 
L 421.880447 -271.646436 
L 421.045089 -271.110787 
L 420.254154 -270.575138 
L 419.513934 -270.039489 
L 418.829833 -269.50384 
L 418.20502 -268.968191 
L 417.639684 -268.432542 
L 417.131144 -267.896893 
L 416.674717 -267.361244 
L 416.264969 -266.825595 
L 415.896943 -266.289946 
L 415.567035 -265.754297 
L 415.273314 -265.218648 
L 415.015184 -264.682999 
L 414.792417 -264.14735 
L 414.603804 -263.611701 
L 414.445867 -263.076052 
L 414.312155 -262.540403 
L 414.193543 -262.004754 
L 414.079561 -261.469104 
L 413.960416 -260.933455 
L 413.829051 -260.397806 
L 413.68261 -259.862157 
L 413.522879 -259.326508 
L 413.355668 -258.790859 
L 413.18933 -258.25521 
L 413.03282 -257.719561 
L 412.893701 -257.183912 
L 412.776467 -256.648263 
L 412.681479 -256.112614 
L 412.604767 -255.576965 
L 412.53876 -255.041316 
L 412.473859 -254.505667 
L 412.400492 -253.970018 
L 412.311147 -253.434369 
L 412.201858 -252.89872 
L 412.072757 -252.363071 
L 411.92762 -251.827422 
L 411.77263 -251.291773 
L 411.614806 -250.756124 
L 411.46058 -250.220475 
L 411.314864 -249.684826 
L 411.180744 -249.149177 
L 411.059689 -248.613528 
L 410.952044 -248.077878 
L 410.857566 -247.542229 
z
" style="stroke: #808080; stroke-opacity: 0.7"/>
    </defs>
    <g clip-path="url(#pb97c20ca0f)">
     <use xlink:href="#mb553285a54" x="0" y="360" style="fill: #87cefa; fill-opacity: 0.7; stroke: #808080; stroke-opacity: 0.7"/>
    </g>
   </g>
   <g id="matplotlib.axis_1">
    <g id="xtick_1">
     <g id="line2d_1">
      <defs>
       <path id="m9bef8ca199" d="M 0 0 
L 0 3.5 
" style="stroke: #000000; stroke-width: 0.8"/>
      </defs>
      <g>
       <use xlink:href="#m9bef8ca199" x="106.118182" y="320.4" style="stroke: #000000; stroke-width: 0.8"/>
      </g>
     </g>
     <g id="text_1">
      <!-- OpenGL -->
      <g transform="translate(86.102557 334.998438) scale(0.1 -0.1)">
       <defs>
        <path id="DejaVuSans-4f" d="M 2522 4238 
Q 1834 4238 1429 3725 
Q 1025 3213 1025 2328 
Q 1025 1447 1429 934 
Q 1834 422 2522 422 
Q 3209 422 3611 934 
Q 4013 1447 4013 2328 
Q 4013 3213 3611 3725 
Q 3209 4238 2522 4238 
z
M 2522 4750 
Q 3503 4750 4090 4092 
Q 4678 3434 4678 2328 
Q 4678 1225 4090 567 
Q 3503 -91 2522 -91 
Q 1538 -91 948 565 
Q 359 1222 359 2328 
Q 359 3434 948 4092 
Q 1538 4750 2522 4750 
z
" transform="scale(0.015625)"/>
        <path id="DejaVuSans-70" d="M 1159 525 
L 1159 -1331 
L 581 -1331 
L 581 3500 
L 1159 3500 
L 1159 2969 
Q 1341 3281 1617 3432 
Q 1894 3584 2278 3584 
Q 2916 3584 3314 3078 
Q 3713 2572 3713 1747 
Q 3713 922 3314 415 
Q 2916 -91 2278 -91 
Q 1894 -91 1617 61 
Q 1341 213 1159 525 
z
M 3116 1747 
Q 3116 2381 2855 2742 
Q 2594 3103 2138 3103 
Q 1681 3103 1420 2742 
Q 1159 2381 1159 1747 
Q 1159 1113 1420 752 
Q 1681 391 2138 391 
Q 2594 391 2855 752 
Q 3116 1113 3116 1747 
z
" transform="scale(0.015625)"/>
        <path id="DejaVuSans-65" d="M 3597 1894 
L 3597 1613 
L 953 1613 
Q 991 1019 1311 708 
Q 1631 397 2203 397 
Q 2534 397 2845 478 
Q 3156 559 3463 722 
L 3463 178 
Q 3153 47 2828 -22 
Q 2503 -91 2169 -91 
Q 1331 -91 842 396 
Q 353 884 353 1716 
Q 353 2575 817 3079 
Q 1281 3584 2069 3584 
Q 2775 3584 3186 3129 
Q 3597 2675 3597 1894 
z
M 3022 2063 
Q 3016 2534 2758 2815 
Q 2500 3097 2075 3097 
Q 1594 3097 1305 2825 
Q 1016 2553 972 2059 
L 3022 2063 
z
" transform="scale(0.015625)"/>
        <path id="DejaVuSans-6e" d="M 3513 2113 
L 3513 0 
L 2938 0 
L 2938 2094 
Q 2938 2591 2744 2837 
Q 2550 3084 2163 3084 
Q 1697 3084 1428 2787 
Q 1159 2491 1159 1978 
L 1159 0 
L 581 0 
L 581 3500 
L 1159 3500 
L 1159 2956 
Q 1366 3272 1645 3428 
Q 1925 3584 2291 3584 
Q 2894 3584 3203 3211 
Q 3513 2838 3513 2113 
z
" transform="scale(0.015625)"/>
        <path id="DejaVuSans-47" d="M 3809 666 
L 3809 1919 
L 2778 1919 
L 2778 2438 
L 4434 2438 
L 4434 434 
Q 4069 175 3628 42 
Q 3188 -91 2688 -91 
Q 1594 -91 976 548 
Q 359 1188 359 2328 
Q 359 3472 976 4111 
Q 1594 4750 2688 4750 
Q 3144 4750 3555 4637 
Q 3966 4525 4313 4306 
L 4313 3634 
Q 3963 3931 3569 4081 
Q 3175 4231 2741 4231 
Q 1884 4231 1454 3753 
Q 1025 3275 1025 2328 
Q 1025 1384 1454 906 
Q 1884 428 2741 428 
Q 3075 428 3337 486 
Q 3600 544 3809 666 
z
" transform="scale(0.015625)"/>
        <path id="DejaVuSans-4c" d="M 628 4666 
L 1259 4666 
L 1259 531 
L 3531 531 
L 3531 0 
L 628 0 
L 628 4666 
z
" transform="scale(0.015625)"/>
       </defs>
       <use xlink:href="#DejaVuSans-4f"/>
       <use xlink:href="#DejaVuSans-70" transform="translate(78.710938 0)"/>
       <use xlink:href="#DejaVuSans-65" transform="translate(142.1875 0)"/>
       <use xlink:href="#DejaVuSans-6e" transform="translate(203.710938 0)"/>
       <use xlink:href="#DejaVuSans-47" transform="translate(267.089844 0)"/>
       <use xlink:href="#DejaVuSans-4c" transform="translate(344.580078 0)"/>
      </g>
     </g>
    </g>
    <g id="xtick_2">
     <g id="line2d_2">
      <g>
       <use xlink:href="#m9bef8ca199" x="207.572727" y="320.4" style="stroke: #000000; stroke-width: 0.8"/>
      </g>
     </g>
     <g id="text_2">
      <!-- OpenGL(Inst) -->
      <g transform="translate(174.446946 334.998438) scale(0.1 -0.1)">
       <defs>
        <path id="DejaVuSans-28" d="M 1984 4856 
Q 1566 4138 1362 3434 
Q 1159 2731 1159 2009 
Q 1159 1288 1364 580 
Q 1569 -128 1984 -844 
L 1484 -844 
Q 1016 -109 783 600 
Q 550 1309 550 2009 
Q 550 2706 781 3412 
Q 1013 4119 1484 4856 
L 1984 4856 
z
" transform="scale(0.015625)"/>
        <path id="DejaVuSans-49" d="M 628 4666 
L 1259 4666 
L 1259 0 
L 628 0 
L 628 4666 
z
" transform="scale(0.015625)"/>
        <path id="DejaVuSans-73" d="M 2834 3397 
L 2834 2853 
Q 2591 2978 2328 3040 
Q 2066 3103 1784 3103 
Q 1356 3103 1142 2972 
Q 928 2841 928 2578 
Q 928 2378 1081 2264 
Q 1234 2150 1697 2047 
L 1894 2003 
Q 2506 1872 2764 1633 
Q 3022 1394 3022 966 
Q 3022 478 2636 193 
Q 2250 -91 1575 -91 
Q 1294 -91 989 -36 
Q 684 19 347 128 
L 347 722 
Q 666 556 975 473 
Q 1284 391 1588 391 
Q 1994 391 2212 530 
Q 2431 669 2431 922 
Q 2431 1156 2273 1281 
Q 2116 1406 1581 1522 
L 1381 1569 
Q 847 1681 609 1914 
Q 372 2147 372 2553 
Q 372 3047 722 3315 
Q 1072 3584 1716 3584 
Q 2034 3584 2315 3537 
Q 2597 3491 2834 3397 
z
" transform="scale(0.015625)"/>
        <path id="DejaVuSans-74" d="M 1172 4494 
L 1172 3500 
L 2356 3500 
L 2356 3053 
L 1172 3053 
L 1172 1153 
Q 1172 725 1289 603 
Q 1406 481 1766 481 
L 2356 481 
L 2356 0 
L 1766 0 
Q 1100 0 847 248 
Q 594 497 594 1153 
L 594 3053 
L 172 3053 
L 172 3500 
L 594 3500 
L 594 4494 
L 1172 4494 
z
" transform="scale(0.015625)"/>
        <path id="DejaVuSans-29" d="M 513 4856 
L 1013 4856 
Q 1481 4119 1714 3412 
Q 1947 2706 1947 2009 
Q 1947 1309 1714 600 
Q 1481 -109 1013 -844 
L 513 -844 
Q 928 -128 1133 580 
Q 1338 1288 1338 2009 
Q 1338 2731 1133 3434 
Q 928 4138 513 4856 
z
" transform="scale(0.015625)"/>
       </defs>
       <use xlink:href="#DejaVuSans-4f"/>
       <use xlink:href="#DejaVuSans-70" transform="translate(78.710938 0)"/>
       <use xlink:href="#DejaVuSans-65" transform="translate(142.1875 0)"/>
       <use xlink:href="#DejaVuSans-6e" transform="translate(203.710938 0)"/>
       <use xlink:href="#DejaVuSans-47" transform="translate(267.089844 0)"/>
       <use xlink:href="#DejaVuSans-4c" transform="translate(344.580078 0)"/>
       <use xlink:href="#DejaVuSans-28" transform="translate(400.292969 0)"/>
       <use xlink:href="#DejaVuSans-49" transform="translate(439.306641 0)"/>
       <use xlink:href="#DejaVuSans-6e" transform="translate(468.798828 0)"/>
       <use xlink:href="#DejaVuSans-73" transform="translate(532.177734 0)"/>
       <use xlink:href="#DejaVuSans-74" transform="translate(584.277344 0)"/>
       <use xlink:href="#DejaVuSans-29" transform="translate(623.486328 0)"/>
      </g>
     </g>
    </g>
    <g id="xtick_3">
     <g id="line2d_3">
      <g>
       <use xlink:href="#m9bef8ca199" x="309.027273" y="320.4" style="stroke: #000000; stroke-width: 0.8"/>
      </g>
     </g>
     <g id="text_3">
      <!-- WGPU-Vulkan -->
      <g transform="translate(275.343679 334.998438) scale(0.1 -0.1)">
       <defs>
        <path id="DejaVuSans-57" d="M 213 4666 
L 850 4666 
L 1831 722 
L 2809 4666 
L 3519 4666 
L 4500 722 
L 5478 4666 
L 6119 4666 
L 4947 0 
L 4153 0 
L 3169 4050 
L 2175 0 
L 1381 0 
L 213 4666 
z
" transform="scale(0.015625)"/>
        <path id="DejaVuSans-50" d="M 1259 4147 
L 1259 2394 
L 2053 2394 
Q 2494 2394 2734 2622 
Q 2975 2850 2975 3272 
Q 2975 3691 2734 3919 
Q 2494 4147 2053 4147 
L 1259 4147 
z
M 628 4666 
L 2053 4666 
Q 2838 4666 3239 4311 
Q 3641 3956 3641 3272 
Q 3641 2581 3239 2228 
Q 2838 1875 2053 1875 
L 1259 1875 
L 1259 0 
L 628 0 
L 628 4666 
z
" transform="scale(0.015625)"/>
        <path id="DejaVuSans-55" d="M 556 4666 
L 1191 4666 
L 1191 1831 
Q 1191 1081 1462 751 
Q 1734 422 2344 422 
Q 2950 422 3222 751 
Q 3494 1081 3494 1831 
L 3494 4666 
L 4128 4666 
L 4128 1753 
Q 4128 841 3676 375 
Q 3225 -91 2344 -91 
Q 1459 -91 1007 375 
Q 556 841 556 1753 
L 556 4666 
z
" transform="scale(0.015625)"/>
        <path id="DejaVuSans-2d" d="M 313 2009 
L 1997 2009 
L 1997 1497 
L 313 1497 
L 313 2009 
z
" transform="scale(0.015625)"/>
        <path id="DejaVuSans-56" d="M 1831 0 
L 50 4666 
L 709 4666 
L 2188 738 
L 3669 4666 
L 4325 4666 
L 2547 0 
L 1831 0 
z
" transform="scale(0.015625)"/>
        <path id="DejaVuSans-75" d="M 544 1381 
L 544 3500 
L 1119 3500 
L 1119 1403 
Q 1119 906 1312 657 
Q 1506 409 1894 409 
Q 2359 409 2629 706 
Q 2900 1003 2900 1516 
L 2900 3500 
L 3475 3500 
L 3475 0 
L 2900 0 
L 2900 538 
Q 2691 219 2414 64 
Q 2138 -91 1772 -91 
Q 1169 -91 856 284 
Q 544 659 544 1381 
z
M 1991 3584 
L 1991 3584 
z
" transform="scale(0.015625)"/>
        <path id="DejaVuSans-6c" d="M 603 4863 
L 1178 4863 
L 1178 0 
L 603 0 
L 603 4863 
z
" transform="scale(0.015625)"/>
        <path id="DejaVuSans-6b" d="M 581 4863 
L 1159 4863 
L 1159 1991 
L 2875 3500 
L 3609 3500 
L 1753 1863 
L 3688 0 
L 2938 0 
L 1159 1709 
L 1159 0 
L 581 0 
L 581 4863 
z
" transform="scale(0.015625)"/>
        <path id="DejaVuSans-61" d="M 2194 1759 
Q 1497 1759 1228 1600 
Q 959 1441 959 1056 
Q 959 750 1161 570 
Q 1363 391 1709 391 
Q 2188 391 2477 730 
Q 2766 1069 2766 1631 
L 2766 1759 
L 2194 1759 
z
M 3341 1997 
L 3341 0 
L 2766 0 
L 2766 531 
Q 2569 213 2275 61 
Q 1981 -91 1556 -91 
Q 1019 -91 701 211 
Q 384 513 384 1019 
Q 384 1609 779 1909 
Q 1175 2209 1959 2209 
L 2766 2209 
L 2766 2266 
Q 2766 2663 2505 2880 
Q 2244 3097 1772 3097 
Q 1472 3097 1187 3025 
Q 903 2953 641 2809 
L 641 3341 
Q 956 3463 1253 3523 
Q 1550 3584 1831 3584 
Q 2591 3584 2966 3190 
Q 3341 2797 3341 1997 
z
" transform="scale(0.015625)"/>
       </defs>
       <use xlink:href="#DejaVuSans-57"/>
       <use xlink:href="#DejaVuSans-47" transform="translate(98.876953 0)"/>
       <use xlink:href="#DejaVuSans-50" transform="translate(176.367188 0)"/>
       <use xlink:href="#DejaVuSans-55" transform="translate(236.669922 0)"/>
       <use xlink:href="#DejaVuSans-2d" transform="translate(309.863281 0)"/>
       <use xlink:href="#DejaVuSans-56" transform="translate(340.072266 0)"/>
       <use xlink:href="#DejaVuSans-75" transform="translate(401.730469 0)"/>
       <use xlink:href="#DejaVuSans-6c" transform="translate(465.109375 0)"/>
       <use xlink:href="#DejaVuSans-6b" transform="translate(492.892578 0)"/>
       <use xlink:href="#DejaVuSans-61" transform="translate(549.052734 0)"/>
       <use xlink:href="#DejaVuSans-6e" transform="translate(610.332031 0)"/>
      </g>
     </g>
    </g>
    <g id="xtick_4">
     <g id="line2d_4">
      <g>
       <use xlink:href="#m9bef8ca199" x="410.481818" y="320.4" style="stroke: #000000; stroke-width: 0.8"/>
      </g>
     </g>
     <g id="text_4">
      <!-- WGPU-Vulkan(Inst) -->
      <g transform="translate(363.688068 334.998438) scale(0.1 -0.1)">
       <use xlink:href="#DejaVuSans-57"/>
       <use xlink:href="#DejaVuSans-47" transform="translate(98.876953 0)"/>
       <use xlink:href="#DejaVuSans-50" transform="translate(176.367188 0)"/>
       <use xlink:href="#DejaVuSans-55" transform="translate(236.669922 0)"/>
       <use xlink:href="#DejaVuSans-2d" transform="translate(309.863281 0)"/>
       <use xlink:href="#DejaVuSans-56" transform="translate(340.072266 0)"/>
       <use xlink:href="#DejaVuSans-75" transform="translate(401.730469 0)"/>
       <use xlink:href="#DejaVuSans-6c" transform="translate(465.109375 0)"/>
       <use xlink:href="#DejaVuSans-6b" transform="translate(492.892578 0)"/>
       <use xlink:href="#DejaVuSans-61" transform="translate(549.052734 0)"/>
       <use xlink:href="#DejaVuSans-6e" transform="translate(610.332031 0)"/>
       <use xlink:href="#DejaVuSans-28" transform="translate(673.710938 0)"/>
       <use xlink:href="#DejaVuSans-49" transform="translate(712.724609 0)"/>
       <use xlink:href="#DejaVuSans-6e" transform="translate(742.216797 0)"/>
       <use xlink:href="#DejaVuSans-73" transform="translate(805.595703 0)"/>
       <use xlink:href="#DejaVuSans-74" transform="translate(857.695312 0)"/>
       <use xlink:href="#DejaVuSans-29" transform="translate(896.904297 0)"/>
      </g>
     </g>
    </g>
   </g>
   <g id="matplotlib.axis_2">
    <g id="ytick_1">
     <g id="line2d_5">
      <path d="M 63 320.4 
L 453.6 320.4 
" clip-path="url(#pb97c20ca0f)" style="fill: none; stroke: #b0b0b0; stroke-width: 0.8; stroke-linecap: square"/>
     </g>
     <g id="line2d_6">
      <defs>
       <path id="m541baee6d5" d="M 0 0 
L -3.5 0 
" style="stroke: #000000; stroke-width: 0.8"/>
      </defs>
      <g>
       <use xlink:href="#m541baee6d5" x="63" y="320.4" style="stroke: #000000; stroke-width: 0.8"/>
      </g>
     </g>
     <g id="text_5">
      <!-- 0 -->
      <g transform="translate(49.6375 324.199219) scale(0.1 -0.1)">
       <defs>
        <path id="DejaVuSans-30" d="M 2034 4250 
Q 1547 4250 1301 3770 
Q 1056 3291 1056 2328 
Q 1056 1369 1301 889 
Q 1547 409 2034 409 
Q 2525 409 2770 889 
Q 3016 1369 3016 2328 
Q 3016 3291 2770 3770 
Q 2525 4250 2034 4250 
z
M 2034 4750 
Q 2819 4750 3233 4129 
Q 3647 3509 3647 2328 
Q 3647 1150 3233 529 
Q 2819 -91 2034 -91 
Q 1250 -91 836 529 
Q 422 1150 422 2328 
Q 422 3509 836 4129 
Q 1250 4750 2034 4750 
z
" transform="scale(0.015625)"/>
       </defs>
       <use xlink:href="#DejaVuSans-30"/>
      </g>
     </g>
    </g>
    <g id="ytick_2">
     <g id="line2d_7">
      <path d="M 63 280.8 
L 453.6 280.8 
" clip-path="url(#pb97c20ca0f)" style="fill: none; stroke: #b0b0b0; stroke-width: 0.8; stroke-linecap: square"/>
     </g>
     <g id="line2d_8">
      <g>
       <use xlink:href="#m541baee6d5" x="63" y="280.8" style="stroke: #000000; stroke-width: 0.8"/>
      </g>
     </g>
     <g id="text_6">
      <!-- 500 -->
      <g transform="translate(36.9125 284.599219) scale(0.1 -0.1)">
       <defs>
        <path id="DejaVuSans-35" d="M 691 4666 
L 3169 4666 
L 3169 4134 
L 1269 4134 
L 1269 2991 
Q 1406 3038 1543 3061 
Q 1681 3084 1819 3084 
Q 2600 3084 3056 2656 
Q 3513 2228 3513 1497 
Q 3513 744 3044 326 
Q 2575 -91 1722 -91 
Q 1428 -91 1123 -41 
Q 819 9 494 109 
L 494 744 
Q 775 591 1075 516 
Q 1375 441 1709 441 
Q 2250 441 2565 725 
Q 2881 1009 2881 1497 
Q 2881 1984 2565 2268 
Q 2250 2553 1709 2553 
Q 1456 2553 1204 2497 
Q 953 2441 691 2322 
L 691 4666 
z
" transform="scale(0.015625)"/>
       </defs>
       <use xlink:href="#DejaVuSans-35"/>
       <use xlink:href="#DejaVuSans-30" transform="translate(63.623047 0)"/>
       <use xlink:href="#DejaVuSans-30" transform="translate(127.246094 0)"/>
      </g>
     </g>
    </g>
    <g id="ytick_3">
     <g id="line2d_9">
      <path d="M 63 241.2 
L 453.6 241.2 
" clip-path="url(#pb97c20ca0f)" style="fill: none; stroke: #b0b0b0; stroke-width: 0.8; stroke-linecap: square"/>
     </g>
     <g id="line2d_10">
      <g>
       <use xlink:href="#m541baee6d5" x="63" y="241.2" style="stroke: #000000; stroke-width: 0.8"/>
      </g>
     </g>
     <g id="text_7">
      <!-- 1000 -->
      <g transform="translate(30.55 244.999219) scale(0.1 -0.1)">
       <defs>
        <path id="DejaVuSans-31" d="M 794 531 
L 1825 531 
L 1825 4091 
L 703 3866 
L 703 4441 
L 1819 4666 
L 2450 4666 
L 2450 531 
L 3481 531 
L 3481 0 
L 794 0 
L 794 531 
z
" transform="scale(0.015625)"/>
       </defs>
       <use xlink:href="#DejaVuSans-31"/>
       <use xlink:href="#DejaVuSans-30" transform="translate(63.623047 0)"/>
       <use xlink:href="#DejaVuSans-30" transform="translate(127.246094 0)"/>
       <use xlink:href="#DejaVuSans-30" transform="translate(190.869141 0)"/>
      </g>
     </g>
    </g>
    <g id="ytick_4">
     <g id="line2d_11">
      <path d="M 63 201.6 
L 453.6 201.6 
" clip-path="url(#pb97c20ca0f)" style="fill: none; stroke: #b0b0b0; stroke-width: 0.8; stroke-linecap: square"/>
     </g>
     <g id="line2d_12">
      <g>
       <use xlink:href="#m541baee6d5" x="63" y="201.6" style="stroke: #000000; stroke-width: 0.8"/>
      </g>
     </g>
     <g id="text_8">
      <!-- 1500 -->
      <g transform="translate(30.55 205.399219) scale(0.1 -0.1)">
       <use xlink:href="#DejaVuSans-31"/>
       <use xlink:href="#DejaVuSans-35" transform="translate(63.623047 0)"/>
       <use xlink:href="#DejaVuSans-30" transform="translate(127.246094 0)"/>
       <use xlink:href="#DejaVuSans-30" transform="translate(190.869141 0)"/>
      </g>
     </g>
    </g>
    <g id="ytick_5">
     <g id="line2d_13">
      <path d="M 63 162 
L 453.6 162 
" clip-path="url(#pb97c20ca0f)" style="fill: none; stroke: #b0b0b0; stroke-width: 0.8; stroke-linecap: square"/>
     </g>
     <g id="line2d_14">
      <g>
       <use xlink:href="#m541baee6d5" x="63" y="162" style="stroke: #000000; stroke-width: 0.8"/>
      </g>
     </g>
     <g id="text_9">
      <!-- 2000 -->
      <g transform="translate(30.55 165.799219) scale(0.1 -0.1)">
       <defs>
        <path id="DejaVuSans-32" d="M 1228 531 
L 3431 531 
L 3431 0 
L 469 0 
L 469 531 
Q 828 903 1448 1529 
Q 2069 2156 2228 2338 
Q 2531 2678 2651 2914 
Q 2772 3150 2772 3378 
Q 2772 3750 2511 3984 
Q 2250 4219 1831 4219 
Q 1534 4219 1204 4116 
Q 875 4013 500 3803 
L 500 4441 
Q 881 4594 1212 4672 
Q 1544 4750 1819 4750 
Q 2544 4750 2975 4387 
Q 3406 4025 3406 3419 
Q 3406 3131 3298 2873 
Q 3191 2616 2906 2266 
Q 2828 2175 2409 1742 
Q 1991 1309 1228 531 
z
" transform="scale(0.015625)"/>
       </defs>
       <use xlink:href="#DejaVuSans-32"/>
       <use xlink:href="#DejaVuSans-30" transform="translate(63.623047 0)"/>
       <use xlink:href="#DejaVuSans-30" transform="translate(127.246094 0)"/>
       <use xlink:href="#DejaVuSans-30" transform="translate(190.869141 0)"/>
      </g>
     </g>
    </g>
    <g id="ytick_6">
     <g id="line2d_15">
      <path d="M 63 122.4 
L 453.6 122.4 
" clip-path="url(#pb97c20ca0f)" style="fill: none; stroke: #b0b0b0; stroke-width: 0.8; stroke-linecap: square"/>
     </g>
     <g id="line2d_16">
      <g>
       <use xlink:href="#m541baee6d5" x="63" y="122.4" style="stroke: #000000; stroke-width: 0.8"/>
      </g>
     </g>
     <g id="text_10">
      <!-- 2500 -->
      <g transform="translate(30.55 126.199219) scale(0.1 -0.1)">
       <use xlink:href="#DejaVuSans-32"/>
       <use xlink:href="#DejaVuSans-35" transform="translate(63.623047 0)"/>
       <use xlink:href="#DejaVuSans-30" transform="translate(127.246094 0)"/>
       <use xlink:href="#DejaVuSans-30" transform="translate(190.869141 0)"/>
      </g>
     </g>
    </g>
    <g id="ytick_7">
     <g id="line2d_17">
      <path d="M 63 82.8 
L 453.6 82.8 
" clip-path="url(#pb97c20ca0f)" style="fill: none; stroke: #b0b0b0; stroke-width: 0.8; stroke-linecap: square"/>
     </g>
     <g id="line2d_18">
      <g>
       <use xlink:href="#m541baee6d5" x="63" y="82.8" style="stroke: #000000; stroke-width: 0.8"/>
      </g>
     </g>
     <g id="text_11">
      <!-- 3000 -->
      <g transform="translate(30.55 86.599219) scale(0.1 -0.1)">
       <defs>
        <path id="DejaVuSans-33" d="M 2597 2516 
Q 3050 2419 3304 2112 
Q 3559 1806 3559 1356 
Q 3559 666 3084 287 
Q 2609 -91 1734 -91 
Q 1441 -91 1130 -33 
Q 819 25 488 141 
L 488 750 
Q 750 597 1062 519 
Q 1375 441 1716 441 
Q 2309 441 2620 675 
Q 2931 909 2931 1356 
Q 2931 1769 2642 2001 
Q 2353 2234 1838 2234 
L 1294 2234 
L 1294 2753 
L 1863 2753 
Q 2328 2753 2575 2939 
Q 2822 3125 2822 3475 
Q 2822 3834 2567 4026 
Q 2313 4219 1838 4219 
Q 1578 4219 1281 4162 
Q 984 4106 628 3988 
L 628 4550 
Q 988 4650 1302 4700 
Q 1616 4750 1894 4750 
Q 2613 4750 3031 4423 
Q 3450 4097 3450 3541 
Q 3450 3153 3228 2886 
Q 3006 2619 2597 2516 
z
" transform="scale(0.015625)"/>
       </defs>
       <use xlink:href="#DejaVuSans-33"/>
       <use xlink:href="#DejaVuSans-30" transform="translate(63.623047 0)"/>
       <use xlink:href="#DejaVuSans-30" transform="translate(127.246094 0)"/>
       <use xlink:href="#DejaVuSans-30" transform="translate(190.869141 0)"/>
      </g>
     </g>
    </g>
    <g id="ytick_8">
     <g id="line2d_19">
      <path d="M 63 43.2 
L 453.6 43.2 
" clip-path="url(#pb97c20ca0f)" style="fill: none; stroke: #b0b0b0; stroke-width: 0.8; stroke-linecap: square"/>
     </g>
     <g id="line2d_20">
      <g>
       <use xlink:href="#m541baee6d5" x="63" y="43.2" style="stroke: #000000; stroke-width: 0.8"/>
      </g>
     </g>
     <g id="text_12">
      <!-- 3500 -->
      <g transform="translate(30.55 46.999219) scale(0.1 -0.1)">
       <use xlink:href="#DejaVuSans-33"/>
       <use xlink:href="#DejaVuSans-35" transform="translate(63.623047 0)"/>
       <use xlink:href="#DejaVuSans-30" transform="translate(127.246094 0)"/>
       <use xlink:href="#DejaVuSans-30" transform="translate(190.869141 0)"/>
      </g>
     </g>
    </g>
    <g id="text_13">
     <!-- FPS -->
     <g transform="translate(24.470312 190.864844) rotate(-90) scale(0.1 -0.1)">
      <defs>
       <path id="DejaVuSans-46" d="M 628 4666 
L 3309 4666 
L 3309 4134 
L 1259 4134 
L 1259 2759 
L 3109 2759 
L 3109 2228 
L 1259 2228 
L 1259 0 
L 628 0 
L 628 4666 
z
" transform="scale(0.015625)"/>
       <path id="DejaVuSans-53" d="M 3425 4513 
L 3425 3897 
Q 3066 4069 2747 4153 
Q 2428 4238 2131 4238 
Q 1616 4238 1336 4038 
Q 1056 3838 1056 3469 
Q 1056 3159 1242 3001 
Q 1428 2844 1947 2747 
L 2328 2669 
Q 3034 2534 3370 2195 
Q 3706 1856 3706 1288 
Q 3706 609 3251 259 
Q 2797 -91 1919 -91 
Q 1588 -91 1214 -16 
Q 841 59 441 206 
L 441 856 
Q 825 641 1194 531 
Q 1563 422 1919 422 
Q 2459 422 2753 634 
Q 3047 847 3047 1241 
Q 3047 1584 2836 1778 
Q 2625 1972 2144 2069 
L 1759 2144 
Q 1053 2284 737 2584 
Q 422 2884 422 3419 
Q 422 4038 858 4394 
Q 1294 4750 2059 4750 
Q 2388 4750 2728 4690 
Q 3069 4631 3425 4513 
z
" transform="scale(0.015625)"/>
      </defs>
      <use xlink:href="#DejaVuSans-46"/>
      <use xlink:href="#DejaVuSans-50" transform="translate(57.519531 0)"/>
      <use xlink:href="#DejaVuSans-53" transform="translate(117.822266 0)"/>
     </g>
    </g>
   </g>
   <g id="LineCollection_1">
    <path d="M 93.436364 95.508622 
L 118.8 95.508622 
" clip-path="url(#pb97c20ca0f)" style="fill: none; stroke: #1f77b4; stroke-width: 1.5"/>
    <path d="M 194.890909 76.522972 
L 220.254545 76.522972 
" clip-path="url(#pb97c20ca0f)" style="fill: none; stroke: #1f77b4; stroke-width: 1.5"/>
    <path d="M 296.345455 178.017297 
L 321.709091 178.017297 
" clip-path="url(#pb97c20ca0f)" style="fill: none; stroke: #1f77b4; stroke-width: 1.5"/>
    <path d="M 397.8 59.428516 
L 423.163636 59.428516 
" clip-path="url(#pb97c20ca0f)" style="fill: none; stroke: #1f77b4; stroke-width: 1.5"/>
   </g>
   <g id="LineCollection_2">
    <path d="M 93.436364 164.446971 
L 118.8 164.446971 
" clip-path="url(#pb97c20ca0f)" style="fill: none; stroke: #1f77b4; stroke-width: 1.5"/>
    <path d="M 194.890909 121.633059 
L 220.254545 121.633059 
" clip-path="url(#pb97c20ca0f)" style="fill: none; stroke: #1f77b4; stroke-width: 1.5"/>
    <path d="M 296.345455 204.551523 
L 321.709091 204.551523 
" clip-path="url(#pb97c20ca0f)" style="fill: none; stroke: #1f77b4; stroke-width: 1.5"/>
    <path d="M 397.8 112.457771 
L 423.163636 112.457771 
" clip-path="url(#pb97c20ca0f)" style="fill: none; stroke: #1f77b4; stroke-width: 1.5"/>
   </g>
   <g id="LineCollection_3">
    <path d="M 106.118182 164.446971 
L 106.118182 95.508622 
" clip-path="url(#pb97c20ca0f)" style="fill: none; stroke: #1f77b4; stroke-width: 1.5"/>
    <path d="M 207.572727 121.633059 
L 207.572727 76.522972 
" clip-path="url(#pb97c20ca0f)" style="fill: none; stroke: #1f77b4; stroke-width: 1.5"/>
    <path d="M 309.027273 204.551523 
L 309.027273 178.017297 
" clip-path="url(#pb97c20ca0f)" style="fill: none; stroke: #1f77b4; stroke-width: 1.5"/>
    <path d="M 410.481818 112.457771 
L 410.481818 59.428516 
" clip-path="url(#pb97c20ca0f)" style="fill: none; stroke: #1f77b4; stroke-width: 1.5"/>
   </g>
   <g id="LineCollection_4">
    <path d="M 93.436364 110.523714 
L 118.8 110.523714 
" clip-path="url(#pb97c20ca0f)" style="fill: none; stroke: #1f77b4; stroke-width: 1.5"/>
    <path d="M 194.890909 99.090787 
L 220.254545 99.090787 
" clip-path="url(#pb97c20ca0f)" style="fill: none; stroke: #1f77b4; stroke-width: 1.5"/>
    <path d="M 296.345455 183.906799 
L 321.709091 183.906799 
" clip-path="url(#pb97c20ca0f)" style="fill: none; stroke: #1f77b4; stroke-width: 1.5"/>
    <path d="M 397.8 79.819752 
L 423.163636 79.819752 
" clip-path="url(#pb97c20ca0f)" style="fill: none; stroke: #1f77b4; stroke-width: 1.5"/>
   </g>
   <g id="patch_3">
    <path d="M 63 320.4 
L 63 43.2 
" style="fill: none; stroke: #000000; stroke-width: 0.8; stroke-linejoin: miter; stroke-linecap: square"/>
   </g>
   <g id="patch_4">
    <path d="M 453.6 320.4 
L 453.6 43.2 
" style="fill: none; stroke: #000000; stroke-width: 0.8; stroke-linejoin: miter; stroke-linecap: square"/>
   </g>
   <g id="patch_5">
    <path d="M 63 320.4 
L 453.6 320.4 
" style="fill: none; stroke: #000000; stroke-width: 0.8; stroke-linejoin: miter; stroke-linecap: square"/>
   </g>
   <g id="patch_6">
    <path d="M 63 43.2 
L 453.6 43.2 
" style="fill: none; stroke: #000000; stroke-width: 0.8; stroke-linejoin: miter; stroke-linecap: square"/>
   </g>
   <g id="text_14">
    <!-- CUTOUT Bench Mark(CPU: 7940HS, GPU: 780M) -->
    <g transform="translate(114.525 37.2) scale(0.12 -0.12)">
     <defs>
      <path id="DejaVuSans-43" d="M 4122 4306 
L 4122 3641 
Q 3803 3938 3442 4084 
Q 3081 4231 2675 4231 
Q 1875 4231 1450 3742 
Q 1025 3253 1025 2328 
Q 1025 1406 1450 917 
Q 1875 428 2675 428 
Q 3081 428 3442 575 
Q 3803 722 4122 1019 
L 4122 359 
Q 3791 134 3420 21 
Q 3050 -91 2638 -91 
Q 1578 -91 968 557 
Q 359 1206 359 2328 
Q 359 3453 968 4101 
Q 1578 4750 2638 4750 
Q 3056 4750 3426 4639 
Q 3797 4528 4122 4306 
z
" transform="scale(0.015625)"/>
      <path id="DejaVuSans-54" d="M -19 4666 
L 3928 4666 
L 3928 4134 
L 2272 4134 
L 2272 0 
L 1638 0 
L 1638 4134 
L -19 4134 
L -19 4666 
z
" transform="scale(0.015625)"/>
      <path id="DejaVuSans-20" transform="scale(0.015625)"/>
      <path id="DejaVuSans-42" d="M 1259 2228 
L 1259 519 
L 2272 519 
Q 2781 519 3026 730 
Q 3272 941 3272 1375 
Q 3272 1813 3026 2020 
Q 2781 2228 2272 2228 
L 1259 2228 
z
M 1259 4147 
L 1259 2741 
L 2194 2741 
Q 2656 2741 2882 2914 
Q 3109 3088 3109 3444 
Q 3109 3797 2882 3972 
Q 2656 4147 2194 4147 
L 1259 4147 
z
M 628 4666 
L 2241 4666 
Q 2963 4666 3353 4366 
Q 3744 4066 3744 3513 
Q 3744 3084 3544 2831 
Q 3344 2578 2956 2516 
Q 3422 2416 3680 2098 
Q 3938 1781 3938 1306 
Q 3938 681 3513 340 
Q 3088 0 2303 0 
L 628 0 
L 628 4666 
z
" transform="scale(0.015625)"/>
      <path id="DejaVuSans-63" d="M 3122 3366 
L 3122 2828 
Q 2878 2963 2633 3030 
Q 2388 3097 2138 3097 
Q 1578 3097 1268 2742 
Q 959 2388 959 1747 
Q 959 1106 1268 751 
Q 1578 397 2138 397 
Q 2388 397 2633 464 
Q 2878 531 3122 666 
L 3122 134 
Q 2881 22 2623 -34 
Q 2366 -91 2075 -91 
Q 1284 -91 818 406 
Q 353 903 353 1747 
Q 353 2603 823 3093 
Q 1294 3584 2113 3584 
Q 2378 3584 2631 3529 
Q 2884 3475 3122 3366 
z
" transform="scale(0.015625)"/>
      <path id="DejaVuSans-68" d="M 3513 2113 
L 3513 0 
L 2938 0 
L 2938 2094 
Q 2938 2591 2744 2837 
Q 2550 3084 2163 3084 
Q 1697 3084 1428 2787 
Q 1159 2491 1159 1978 
L 1159 0 
L 581 0 
L 581 4863 
L 1159 4863 
L 1159 2956 
Q 1366 3272 1645 3428 
Q 1925 3584 2291 3584 
Q 2894 3584 3203 3211 
Q 3513 2838 3513 2113 
z
" transform="scale(0.015625)"/>
      <path id="DejaVuSans-4d" d="M 628 4666 
L 1569 4666 
L 2759 1491 
L 3956 4666 
L 4897 4666 
L 4897 0 
L 4281 0 
L 4281 4097 
L 3078 897 
L 2444 897 
L 1241 4097 
L 1241 0 
L 628 0 
L 628 4666 
z
" transform="scale(0.015625)"/>
      <path id="DejaVuSans-72" d="M 2631 2963 
Q 2534 3019 2420 3045 
Q 2306 3072 2169 3072 
Q 1681 3072 1420 2755 
Q 1159 2438 1159 1844 
L 1159 0 
L 581 0 
L 581 3500 
L 1159 3500 
L 1159 2956 
Q 1341 3275 1631 3429 
Q 1922 3584 2338 3584 
Q 2397 3584 2469 3576 
Q 2541 3569 2628 3553 
L 2631 2963 
z
" transform="scale(0.015625)"/>
      <path id="DejaVuSans-3a" d="M 750 794 
L 1409 794 
L 1409 0 
L 750 0 
L 750 794 
z
M 750 3309 
L 1409 3309 
L 1409 2516 
L 750 2516 
L 750 3309 
z
" transform="scale(0.015625)"/>
      <path id="DejaVuSans-37" d="M 525 4666 
L 3525 4666 
L 3525 4397 
L 1831 0 
L 1172 0 
L 2766 4134 
L 525 4134 
L 525 4666 
z
" transform="scale(0.015625)"/>
      <path id="DejaVuSans-39" d="M 703 97 
L 703 672 
Q 941 559 1184 500 
Q 1428 441 1663 441 
Q 2288 441 2617 861 
Q 2947 1281 2994 2138 
Q 2813 1869 2534 1725 
Q 2256 1581 1919 1581 
Q 1219 1581 811 2004 
Q 403 2428 403 3163 
Q 403 3881 828 4315 
Q 1253 4750 1959 4750 
Q 2769 4750 3195 4129 
Q 3622 3509 3622 2328 
Q 3622 1225 3098 567 
Q 2575 -91 1691 -91 
Q 1453 -91 1209 -44 
Q 966 3 703 97 
z
M 1959 2075 
Q 2384 2075 2632 2365 
Q 2881 2656 2881 3163 
Q 2881 3666 2632 3958 
Q 2384 4250 1959 4250 
Q 1534 4250 1286 3958 
Q 1038 3666 1038 3163 
Q 1038 2656 1286 2365 
Q 1534 2075 1959 2075 
z
" transform="scale(0.015625)"/>
      <path id="DejaVuSans-34" d="M 2419 4116 
L 825 1625 
L 2419 1625 
L 2419 4116 
z
M 2253 4666 
L 3047 4666 
L 3047 1625 
L 3713 1625 
L 3713 1100 
L 3047 1100 
L 3047 0 
L 2419 0 
L 2419 1100 
L 313 1100 
L 313 1709 
L 2253 4666 
z
" transform="scale(0.015625)"/>
      <path id="DejaVuSans-48" d="M 628 4666 
L 1259 4666 
L 1259 2753 
L 3553 2753 
L 3553 4666 
L 4184 4666 
L 4184 0 
L 3553 0 
L 3553 2222 
L 1259 2222 
L 1259 0 
L 628 0 
L 628 4666 
z
" transform="scale(0.015625)"/>
      <path id="DejaVuSans-2c" d="M 750 794 
L 1409 794 
L 1409 256 
L 897 -744 
L 494 -744 
L 750 256 
L 750 794 
z
" transform="scale(0.015625)"/>
      <path id="DejaVuSans-38" d="M 2034 2216 
Q 1584 2216 1326 1975 
Q 1069 1734 1069 1313 
Q 1069 891 1326 650 
Q 1584 409 2034 409 
Q 2484 409 2743 651 
Q 3003 894 3003 1313 
Q 3003 1734 2745 1975 
Q 2488 2216 2034 2216 
z
M 1403 2484 
Q 997 2584 770 2862 
Q 544 3141 544 3541 
Q 544 4100 942 4425 
Q 1341 4750 2034 4750 
Q 2731 4750 3128 4425 
Q 3525 4100 3525 3541 
Q 3525 3141 3298 2862 
Q 3072 2584 2669 2484 
Q 3125 2378 3379 2068 
Q 3634 1759 3634 1313 
Q 3634 634 3220 271 
Q 2806 -91 2034 -91 
Q 1263 -91 848 271 
Q 434 634 434 1313 
Q 434 1759 690 2068 
Q 947 2378 1403 2484 
z
M 1172 3481 
Q 1172 3119 1398 2916 
Q 1625 2713 2034 2713 
Q 2441 2713 2670 2916 
Q 2900 3119 2900 3481 
Q 2900 3844 2670 4047 
Q 2441 4250 2034 4250 
Q 1625 4250 1398 4047 
Q 1172 3844 1172 3481 
z
" transform="scale(0.015625)"/>
     </defs>
     <use xlink:href="#DejaVuSans-43"/>
     <use xlink:href="#DejaVuSans-55" transform="translate(69.824219 0)"/>
     <use xlink:href="#DejaVuSans-54" transform="translate(143.017578 0)"/>
     <use xlink:href="#DejaVuSans-4f" transform="translate(204.101562 0)"/>
     <use xlink:href="#DejaVuSans-55" transform="translate(282.8125 0)"/>
     <use xlink:href="#DejaVuSans-54" transform="translate(356.005859 0)"/>
     <use xlink:href="#DejaVuSans-20" transform="translate(417.089844 0)"/>
     <use xlink:href="#DejaVuSans-42" transform="translate(448.876953 0)"/>
     <use xlink:href="#DejaVuSans-65" transform="translate(517.480469 0)"/>
     <use xlink:href="#DejaVuSans-6e" transform="translate(579.003906 0)"/>
     <use xlink:href="#DejaVuSans-63" transform="translate(642.382812 0)"/>
     <use xlink:href="#DejaVuSans-68" transform="translate(697.363281 0)"/>
     <use xlink:href="#DejaVuSans-20" transform="translate(760.742188 0)"/>
     <use xlink:href="#DejaVuSans-4d" transform="translate(792.529297 0)"/>
     <use xlink:href="#DejaVuSans-61" transform="translate(878.808594 0)"/>
     <use xlink:href="#DejaVuSans-72" transform="translate(940.087891 0)"/>
     <use xlink:href="#DejaVuSans-6b" transform="translate(981.201172 0)"/>
     <use xlink:href="#DejaVuSans-28" transform="translate(1039.111328 0)"/>
     <use xlink:href="#DejaVuSans-43" transform="translate(1078.125 0)"/>
     <use xlink:href="#DejaVuSans-50" transform="translate(1147.949219 0)"/>
     <use xlink:href="#DejaVuSans-55" transform="translate(1208.251953 0)"/>
     <use xlink:href="#DejaVuSans-3a" transform="translate(1281.445312 0)"/>
     <use xlink:href="#DejaVuSans-20" transform="translate(1315.136719 0)"/>
     <use xlink:href="#DejaVuSans-37" transform="translate(1346.923828 0)"/>
     <use xlink:href="#DejaVuSans-39" transform="translate(1410.546875 0)"/>
     <use xlink:href="#DejaVuSans-34" transform="translate(1474.169922 0)"/>
     <use xlink:href="#DejaVuSans-30" transform="translate(1537.792969 0)"/>
     <use xlink:href="#DejaVuSans-48" transform="translate(1601.416016 0)"/>
     <use xlink:href="#DejaVuSans-53" transform="translate(1676.611328 0)"/>
     <use xlink:href="#DejaVuSans-2c" transform="translate(1740.087891 0)"/>
     <use xlink:href="#DejaVuSans-20" transform="translate(1771.875 0)"/>
     <use xlink:href="#DejaVuSans-47" transform="translate(1803.662109 0)"/>
     <use xlink:href="#DejaVuSans-50" transform="translate(1881.152344 0)"/>
     <use xlink:href="#DejaVuSans-55" transform="translate(1941.455078 0)"/>
     <use xlink:href="#DejaVuSans-3a" transform="translate(2014.648438 0)"/>
     <use xlink:href="#DejaVuSans-20" transform="translate(2048.339844 0)"/>
     <use xlink:href="#DejaVuSans-37" transform="translate(2080.126953 0)"/>
     <use xlink:href="#DejaVuSans-38" transform="translate(2143.75 0)"/>
     <use xlink:href="#DejaVuSans-30" transform="translate(2207.373047 0)"/>
     <use xlink:href="#DejaVuSans-4d" transform="translate(2270.996094 0)"/>
     <use xlink:href="#DejaVuSans-29" transform="translate(2357.275391 0)"/>
    </g>
   </g>
  </g>
 </g>
 <defs>
  <clipPath id="pb97c20ca0f">
   <rect x="63" y="43.2" width="390.6" height="277.2"/>
  </clipPath>
 </defs>
</svg>
